<svg width="19" height="19" viewBox="0 0 19 19" fill="none" xmlns="http://www.w3.org/2000/svg">
<path d="M9.40137 18.6191C8.17676 18.6191 7.02246 18.3848 5.93848 17.916C4.86035 17.4473 3.9082 16.7998 3.08203 15.9736C2.25586 15.1475 1.6084 14.1953 1.13965 13.1172C0.670898 12.0332 0.436523 10.8789 0.436523 9.6543C0.436523 8.42969 0.670898 7.27832 1.13965 6.2002C1.6084 5.11621 2.25293 4.16113 3.07324 3.33496C3.89941 2.50879 4.85156 1.86133 5.92969 1.39258C7.01367 0.923828 8.16797 0.689453 9.39258 0.689453C10.6172 0.689453 11.7715 0.923828 12.8555 1.39258C13.9395 1.86133 14.8945 2.50879 15.7207 3.33496C16.5469 4.16113 17.1943 5.11621 17.6631 6.2002C18.1318 7.27832 18.3662 8.42969 18.3662 9.6543C18.3662 10.8789 18.1318 12.0332 17.6631 13.1172C17.1943 14.1953 16.5469 15.1475 15.7207 15.9736C14.8945 16.7998 13.9395 17.4473 12.8555 17.916C11.7773 18.3848 10.626 18.6191 9.40137 18.6191ZM5.1123 9.66309C5.1123 9.88574 5.18555 10.0674 5.33203 10.208C5.47852 10.3428 5.66602 10.4102 5.89453 10.4102H8.64551V13.1699C8.64551 13.3984 8.71289 13.5859 8.84766 13.7324C8.98828 13.873 9.16992 13.9434 9.39258 13.9434C9.62109 13.9434 9.80566 13.873 9.94629 13.7324C10.0928 13.5859 10.166 13.3984 10.166 13.1699V10.4102H12.9258C13.1484 10.4102 13.333 10.3428 13.4795 10.208C13.626 10.0674 13.6992 9.88574 13.6992 9.66309C13.6992 9.43457 13.626 9.25 13.4795 9.10938C13.3389 8.96289 13.1543 8.88965 12.9258 8.88965H10.166V6.13867C10.166 5.91016 10.0928 5.72266 9.94629 5.57617C9.80566 5.42969 9.62109 5.35645 9.39258 5.35645C9.16992 5.35645 8.98828 5.42969 8.84766 5.57617C8.71289 5.72266 8.64551 5.91016 8.64551 6.13867V8.88965H5.89453C5.66602 8.88965 5.47852 8.96289 5.33203 9.10938C5.18555 9.25 5.1123 9.43457 5.1123 9.66309Z" fill="#656565"/>
</svg>
