<svg width="13" height="8" viewBox="0 0 13 8" fill="none" xmlns="http://www.w3.org/2000/svg">
<path d="M6.50684 7.99512C6.17871 7.99512 5.87793 7.86068 5.60449 7.5918L0.545898 2.41699C0.445638 2.31217 0.368164 2.19824 0.313477 2.0752C0.263346 1.94759 0.238281 1.81087 0.238281 1.66504C0.238281 1.45996 0.286133 1.27539 0.381836 1.11133C0.482096 0.942708 0.614258 0.810547 0.77832 0.714844C0.942383 0.614583 1.12467 0.564453 1.3252 0.564453C1.63053 0.564453 1.89941 0.680664 2.13184 0.913086L6.78711 5.70508H6.2334L10.875 0.913086C11.1074 0.680664 11.374 0.564453 11.6748 0.564453C11.8753 0.564453 12.0576 0.614583 12.2217 0.714844C12.3857 0.810547 12.5156 0.942708 12.6113 1.11133C12.7116 1.27539 12.7617 1.45996 12.7617 1.66504C12.7617 1.96126 12.6592 2.21191 12.4541 2.41699L7.40234 7.5918C7.26562 7.72852 7.12435 7.82878 6.97852 7.89258C6.83268 7.95638 6.67546 7.99056 6.50684 7.99512Z" fill="#606DAB"/>
</svg>
