<svg width="50" height="50" viewBox="0 0 50 50" fill="none" xmlns="http://www.w3.org/2000/svg">
<rect width="50" height="50" fill="#181F3E"/>
<mask id="mask0_287_301" style="mask-type:alpha" maskUnits="userSpaceOnUse" x="13" y="13" width="24" height="24">
<rect x="13" y="13" width="24" height="24" fill="#D9D9D9"/>
</mask>
<g mask="url(#mask0_287_301)">
<path d="M25.0008 26.3998L20.1008 31.2998C19.9174 31.4831 19.6841 31.5748 19.4008 31.5748C19.1174 31.5748 18.8841 31.4831 18.7008 31.2998C18.5174 31.1165 18.4258 30.8831 18.4258 30.5998C18.4258 30.3165 18.5174 30.0831 18.7008 29.8998L23.6008 24.9998L18.7008 20.0998C18.5174 19.9165 18.4258 19.6831 18.4258 19.3998C18.4258 19.1165 18.5174 18.8831 18.7008 18.6998C18.8841 18.5165 19.1174 18.4248 19.4008 18.4248C19.6841 18.4248 19.9174 18.5165 20.1008 18.6998L25.0008 23.5998L29.9008 18.6998C30.0841 18.5165 30.3174 18.4248 30.6008 18.4248C30.8841 18.4248 31.1174 18.5165 31.3008 18.6998C31.4841 18.8831 31.5758 19.1165 31.5758 19.3998C31.5758 19.6831 31.4841 19.9165 31.3008 20.0998L26.4008 24.9998L31.3008 29.8998C31.4841 30.0831 31.5758 30.3165 31.5758 30.5998C31.5758 30.8831 31.4841 31.1165 31.3008 31.2998C31.1174 31.4831 30.8841 31.5748 30.6008 31.5748C30.3174 31.5748 30.0841 31.4831 29.9008 31.2998L25.0008 26.3998Z" fill="#ACB8F1"/>
</g>
</svg>
