<svg width="18" height="16" viewBox="0 0 18 16" fill="none" xmlns="http://www.w3.org/2000/svg">
<path d="M1 15.2442C0.716667 15.2442 0.479167 15.1291 0.2875 14.8988C0.0958333 14.6685 0 14.3832 0 14.0428C0 13.7024 0.0958333 13.417 0.2875 13.1868C0.479167 12.9565 0.716667 12.8414 1 12.8414H17C17.2833 12.8414 17.5208 12.9565 17.7125 13.1868C17.9042 13.417 18 13.7024 18 14.0428C18 14.3832 17.9042 14.6685 17.7125 14.8988C17.5208 15.1291 17.2833 15.2442 17 15.2442H1ZM1 9.2371C0.716667 9.2371 0.479167 9.12196 0.2875 8.89169C0.0958333 8.66142 0 8.37608 0 8.03568C0 7.69528 0.0958333 7.40994 0.2875 7.17967C0.479167 6.94939 0.716667 6.83426 1 6.83426H17C17.2833 6.83426 17.5208 6.94939 17.7125 7.17967C17.9042 7.40994 18 7.69528 18 8.03568C18 8.37608 17.9042 8.66142 17.7125 8.89169C17.5208 9.12196 17.2833 9.2371 17 9.2371H1ZM1 3.22999C0.716667 3.22999 0.479167 3.11486 0.2875 2.88458C0.0958333 2.65431 0 2.36897 0 2.02857C0 1.68817 0.0958333 1.40283 0.2875 1.17256C0.479167 0.942285 0.716667 0.827148 1 0.827148H17C17.2833 0.827148 17.5208 0.942285 17.7125 1.17256C17.9042 1.40283 18 1.68817 18 2.02857C18 2.36897 17.9042 2.65431 17.7125 2.88458C17.5208 3.11486 17.2833 3.22999 17 3.22999H1Z" fill="#C7D0FF"/>
</svg>
