<svg width="16" height="18" viewBox="0 0 16 18" fill="none" xmlns="http://www.w3.org/2000/svg">
<path d="M1.8 18C1.305 18 0.88125 17.8237 0.52875 17.4713C0.17625 17.1187 0 16.695 0 16.2V4.5C0 4.245 0.08625 4.03125 0.25875 3.85875C0.43125 3.68625 0.645 3.6 0.9 3.6C1.155 3.6 1.36875 3.68625 1.54125 3.85875C1.71375 4.03125 1.8 4.245 1.8 4.5V16.2H10.8C11.055 16.2 11.2688 16.2862 11.4412 16.4587C11.6138 16.6313 11.7 16.845 11.7 17.1C11.7 17.355 11.6138 17.5687 11.4412 17.7412C11.2688 17.9137 11.055 18 10.8 18H1.8ZM5.4 14.4C4.905 14.4 4.48125 14.2238 4.12875 13.8713C3.77625 13.5188 3.6 13.095 3.6 12.6V1.8C3.6 1.305 3.77625 0.88125 4.12875 0.52875C4.48125 0.17625 4.905 0 5.4 0H13.5C13.995 0 14.4187 0.17625 14.7712 0.52875C15.1237 0.88125 15.3 1.305 15.3 1.8V12.6C15.3 13.095 15.1237 13.5188 14.7712 13.8713C14.4187 14.2238 13.995 14.4 13.5 14.4H5.4ZM5.4 12.6H13.5V1.8H5.4V12.6Z" fill="#989898"/>
</svg>
