<svg width="15" height="12" viewBox="0 0 15 12" fill="none" xmlns="http://www.w3.org/2000/svg">
<path d="M14.0527 6.04395C14.0527 6.33105 13.9525 6.57487 13.752 6.77539L9.29492 11.2188C9.08984 11.4238 8.8597 11.5264 8.60449 11.5264C8.31283 11.5264 8.07812 11.4352 7.90039 11.2529C7.72266 11.0752 7.63379 10.8542 7.63379 10.5898C7.63379 10.4395 7.66113 10.3073 7.71582 10.1934C7.77507 10.0749 7.85026 9.97005 7.94141 9.87891L9.47266 8.34766L11.7354 6.26953L12.1523 6.8916L9.5 7.03516H1.76855C1.46322 7.03516 1.21484 6.94401 1.02344 6.76172C0.836589 6.57943 0.743164 6.34017 0.743164 6.04395C0.743164 5.74772 0.836589 5.50846 1.02344 5.32617C1.21484 5.14388 1.46322 5.05273 1.76855 5.05273H9.5L12.1523 5.19629L11.7354 5.81836L9.47266 3.74023L7.94141 2.20215C7.85026 2.111 7.77507 2.00846 7.71582 1.89453C7.66113 1.77604 7.63379 1.6416 7.63379 1.49121C7.63379 1.22689 7.72266 1.00586 7.90039 0.828125C8.07812 0.645833 8.31283 0.554688 8.60449 0.554688C8.72754 0.554688 8.84831 0.582031 8.9668 0.636719C9.08529 0.686849 9.19694 0.764323 9.30176 0.869141L13.752 5.3125C13.9525 5.50846 14.0527 5.75228 14.0527 6.04395Z" fill="#acb8f1"/>
</svg>
