<svg width="555" height="14" viewBox="0 0 555 14" fill="none" xmlns="http://www.w3.org/2000/svg">
<path d="M6.02539 12.7461C5.20898 12.7461 4.43945 12.5898 3.7168 12.2773C2.99805 11.9648 2.36328 11.5332 1.8125 10.9824C1.26172 10.4316 0.830078 9.79688 0.517578 9.07812C0.205078 8.35547 0.0488281 7.58594 0.0488281 6.76953C0.0488281 5.95312 0.205078 5.18555 0.517578 4.4668C0.830078 3.74414 1.25977 3.10742 1.80664 2.55664C2.35742 2.00586 2.99219 1.57422 3.71094 1.26172C4.43359 0.949219 5.20312 0.792969 6.01953 0.792969C6.83594 0.792969 7.60547 0.949219 8.32812 1.26172C9.05078 1.57422 9.6875 2.00586 10.2383 2.55664C10.7891 3.10742 11.2207 3.74414 11.5332 4.4668C11.8457 5.18555 12.002 5.95312 12.002 6.76953C12.002 7.58594 11.8457 8.35547 11.5332 9.07812C11.2207 9.79688 10.7891 10.4316 10.2383 10.9824C9.6875 11.5332 9.05078 11.9648 8.32812 12.2773C7.60938 12.5898 6.8418 12.7461 6.02539 12.7461ZM4.87695 8.80859H7.15625C7.21094 8.80859 7.25391 8.79297 7.28516 8.76172C7.31641 8.73047 7.33203 8.68945 7.33203 8.63867V8.13477C7.33203 7.94336 7.38867 7.76367 7.50195 7.5957C7.61523 7.42383 7.74414 7.24219 7.88867 7.05078C8.0332 6.85938 8.16211 6.64258 8.27539 6.40039C8.38867 6.1543 8.44531 5.86133 8.44531 5.52148C8.44531 5.04102 8.34375 4.62109 8.14062 4.26172C7.9375 3.89844 7.6543 3.61719 7.29102 3.41797C6.92773 3.21875 6.50391 3.11914 6.01953 3.11914C5.53516 3.11914 5.10938 3.21875 4.74219 3.41797C4.37891 3.61719 4.0957 3.89844 3.89258 4.26172C3.69336 4.62109 3.59375 5.04102 3.59375 5.52148C3.59375 5.86133 3.64844 6.1543 3.75781 6.40039C3.87109 6.64258 4 6.85938 4.14453 7.05078C4.29297 7.24219 4.42188 7.42383 4.53125 7.5957C4.64453 7.76367 4.70117 7.94336 4.70117 8.13477V8.63867C4.70117 8.68945 4.7168 8.73047 4.74805 8.76172C4.7832 8.79297 4.82617 8.80859 4.87695 8.80859ZM6.01953 10.4199C6.23438 10.4199 6.41211 10.375 6.55273 10.2852C6.69727 10.1914 6.77734 10.0664 6.79297 9.91016H5.24023C5.25586 10.0664 5.33398 10.1914 5.47461 10.2852C5.61914 10.375 5.80078 10.4199 6.01953 10.4199ZM5 9.6582H7.03906C7.12109 9.6582 7.18945 9.62891 7.24414 9.57031C7.30273 9.51172 7.33203 9.44336 7.33203 9.36523C7.33203 9.2793 7.30273 9.20898 7.24414 9.1543C7.18945 9.09961 7.12109 9.07227 7.03906 9.07227H5C4.91797 9.07227 4.84766 9.09961 4.78906 9.1543C4.73047 9.20898 4.70117 9.2793 4.70117 9.36523C4.70117 9.44336 4.73047 9.51172 4.78906 9.57031C4.84766 9.62891 4.91797 9.6582 5 9.6582Z" fill="#3284FF"/>
<path d="M20.2125 11H18.5325L20.2485 3.56H17.4645L17.8245 2H25.0725L24.7125 3.56H21.9285L20.2125 11ZM26.573 2H28.241L26.165 11H24.497L26.573 2ZM31.101 5.996H32.721C33.201 5.996 33.585 5.864 33.873 5.576C34.149 5.3 34.293 4.976 34.293 4.604C34.293 4.292 34.197 4.04 34.017 3.848C33.825 3.656 33.561 3.56 33.201 3.56H31.653L31.101 5.996ZM30.345 2H33.381C34.209 2 34.845 2.24 35.301 2.696C35.745 3.152 35.973 3.728 35.973 4.4C35.973 5.24 35.649 5.972 35.025 6.608C34.401 7.244 33.537 7.556 32.445 7.556H30.729L29.937 11H28.281L30.345 2ZM37.3965 11H35.5965L36.0285 9.152H37.8285L37.3965 11ZM38.5725 5.948H36.7725L37.2045 4.1H39.0045L38.5725 5.948ZM45.0716 11H43.9676L45.8156 2.984H42.8156L43.0436 2H50.1476L49.9196 2.984H46.9196L45.0716 11ZM53.7999 7.292C53.7999 6.644 53.6439 6.164 53.3559 5.828C53.0679 5.504 52.6719 5.336 52.1919 5.336C51.5199 5.336 50.9679 5.624 50.5119 6.188C50.0559 6.752 49.8399 7.436 49.8399 8.24C49.8399 8.888 49.9839 9.368 50.2839 9.692C50.5839 10.028 50.9799 10.184 51.4719 10.184C52.1319 10.184 52.6839 9.908 53.1279 9.344C53.5719 8.792 53.7999 8.108 53.7999 7.292ZM52.2879 4.376C53.0559 4.376 53.6679 4.628 54.1479 5.108C54.6279 5.588 54.8679 6.284 54.8679 7.196C54.8679 8.312 54.5319 9.248 53.8599 10.004C53.1879 10.772 52.3479 11.144 51.3399 11.144C50.5719 11.144 49.9479 10.904 49.4799 10.424C48.9999 9.944 48.7719 9.236 48.7719 8.324C48.7719 7.208 49.1079 6.272 49.7799 5.516C50.4519 4.76 51.2799 4.376 52.2879 4.376ZM66.0727 4.376C66.6727 4.376 67.1167 4.532 67.4167 4.82C67.7167 5.108 67.8727 5.492 67.8727 5.948C67.8727 6.128 67.8487 6.284 67.8247 6.416L66.7687 11H65.7007L66.6727 6.764C66.6967 6.62 66.7207 6.464 66.7207 6.296C66.7207 5.672 66.3967 5.348 65.7727 5.348C65.3167 5.348 64.9087 5.54 64.5487 5.9C64.1887 6.272 63.9247 6.8 63.7687 7.484L62.9647 11H61.8967L62.8567 6.764C62.8927 6.596 62.9167 6.44 62.9167 6.308C62.9167 6.02 62.8327 5.792 62.6887 5.612C62.5327 5.444 62.2927 5.348 61.9807 5.348C61.5007 5.348 61.0927 5.54 60.7327 5.912C60.3727 6.284 60.1087 6.8 59.9647 7.472L59.1607 11H58.0927L59.5807 4.496H60.6127L60.3727 5.552C60.8167 4.772 61.4407 4.376 62.2327 4.376C62.7007 4.376 63.0967 4.508 63.4087 4.772C63.7207 5.036 63.8647 5.372 63.8647 5.756C63.9847 5.408 64.2487 5.096 64.6567 4.808C65.0647 4.52 65.5327 4.376 66.0727 4.376ZM73.1033 8.168L73.2113 7.676C73.0673 7.796 72.7433 7.88 72.2633 7.928L71.3393 8.024C71.0993 8.048 70.9073 8.084 70.7393 8.12C70.5713 8.168 70.3913 8.228 70.2233 8.312C70.0553 8.396 69.9233 8.516 69.8393 8.66C69.7433 8.816 69.7073 8.996 69.7073 9.212C69.7073 9.548 69.8033 9.788 69.9953 9.956C70.1873 10.124 70.4513 10.196 70.7633 10.196C71.2433 10.196 71.7233 10.016 72.1913 9.656C72.6473 9.296 72.9593 8.804 73.1033 8.168ZM74.4953 6.704L73.5233 11H72.4913L72.7313 9.944C72.1913 10.748 71.4833 11.144 70.6073 11.144C70.2953 11.144 69.9953 11.096 69.7193 10.988C69.4433 10.892 69.2033 10.688 68.9873 10.4C68.7713 10.112 68.6753 9.74 68.6753 9.296C68.6753 8.696 68.8553 8.228 69.2273 7.892C69.5993 7.556 70.1033 7.34 70.7273 7.268L72.5513 7.064C73.2233 6.992 73.5713 6.692 73.5713 6.164C73.5713 5.552 73.1393 5.24 72.2753 5.24C71.3033 5.24 70.7273 5.636 70.5593 6.428H69.5033C69.8993 5.06 70.8353 4.376 72.2993 4.376C73.0073 4.376 73.5593 4.532 73.9673 4.832C74.3633 5.144 74.5673 5.564 74.5673 6.116C74.5673 6.308 74.5433 6.5 74.4953 6.704ZM79.061 7.268L80.885 11H79.733L78.257 7.952L76.889 9.128L76.457 11H75.389L77.501 1.856H78.569L77.237 7.604L80.837 4.496H82.301L79.061 7.268ZM85.6006 5.3C85.1326 5.3 84.7006 5.456 84.2926 5.768C83.8846 6.08 83.5966 6.536 83.4166 7.148H86.9446C86.9566 7.052 86.9686 6.92 86.9686 6.74C86.9686 5.78 86.5126 5.3 85.6006 5.3ZM87.9166 8.012H83.2606C83.2246 8.192 83.2126 8.336 83.2126 8.444C83.2126 8.9 83.3326 9.308 83.5966 9.656C83.8486 10.016 84.2566 10.184 84.8206 10.184C85.7086 10.184 86.2966 9.764 86.5966 8.924H87.6046C87.3646 9.656 86.9806 10.208 86.4646 10.58C85.9366 10.964 85.3486 11.144 84.7006 11.144C83.9086 11.144 83.2966 10.892 82.8766 10.364C82.4446 9.848 82.2406 9.152 82.2406 8.288C82.2406 7.184 82.5646 6.248 83.2126 5.504C83.8606 4.76 84.6766 4.376 85.6486 4.376C86.4646 4.376 87.0766 4.616 87.4606 5.084C87.8446 5.552 88.0366 6.164 88.0366 6.92C88.0366 7.232 87.9886 7.604 87.9166 8.012ZM99.1547 4.376C99.7547 4.376 100.199 4.532 100.499 4.82C100.799 5.108 100.955 5.492 100.955 5.948C100.955 6.128 100.931 6.284 100.907 6.416L99.8507 11H98.7827L99.7547 6.764C99.7787 6.62 99.8027 6.464 99.8027 6.296C99.8027 5.672 99.4787 5.348 98.8547 5.348C98.3987 5.348 97.9907 5.54 97.6307 5.9C97.2707 6.272 97.0067 6.8 96.8507 7.484L96.0467 11H94.9787L95.9387 6.764C95.9747 6.596 95.9987 6.44 95.9987 6.308C95.9987 6.02 95.9147 5.792 95.7707 5.612C95.6147 5.444 95.3747 5.348 95.0627 5.348C94.5827 5.348 94.1747 5.54 93.8147 5.912C93.4547 6.284 93.1907 6.8 93.0467 7.472L92.2427 11H91.1747L92.6627 4.496H93.6947L93.4547 5.552C93.8987 4.772 94.5227 4.376 95.3147 4.376C95.7827 4.376 96.1787 4.508 96.4907 4.772C96.8027 5.036 96.9467 5.372 96.9467 5.756C97.0667 5.408 97.3307 5.096 97.7387 4.808C98.1467 4.52 98.6147 4.376 99.1547 4.376ZM107.073 7.292C107.073 6.644 106.917 6.164 106.629 5.828C106.341 5.504 105.945 5.336 105.465 5.336C104.793 5.336 104.241 5.624 103.785 6.188C103.329 6.752 103.113 7.436 103.113 8.24C103.113 8.888 103.257 9.368 103.557 9.692C103.857 10.028 104.253 10.184 104.745 10.184C105.405 10.184 105.957 9.908 106.401 9.344C106.845 8.792 107.073 8.108 107.073 7.292ZM105.561 4.376C106.329 4.376 106.941 4.628 107.421 5.108C107.901 5.588 108.141 6.284 108.141 7.196C108.141 8.312 107.805 9.248 107.133 10.004C106.461 10.772 105.621 11.144 104.613 11.144C103.845 11.144 103.221 10.904 102.753 10.424C102.273 9.944 102.045 9.236 102.045 8.324C102.045 7.208 102.381 6.272 103.053 5.516C103.725 4.76 104.553 4.376 105.561 4.376ZM112.672 5.288C111.964 5.288 111.388 5.6 110.956 6.224C110.512 6.848 110.296 7.544 110.296 8.288C110.296 8.84 110.416 9.284 110.68 9.644C110.944 10.004 111.328 10.172 111.832 10.172C112.312 10.172 112.732 10.028 113.104 9.716C113.476 9.404 113.752 9.032 113.932 8.588C114.112 8.156 114.208 7.7 114.208 7.22C114.208 6.668 114.076 6.2 113.824 5.84C113.572 5.48 113.188 5.288 112.672 5.288ZM114.424 11H113.392L113.644 9.908C113.464 10.292 113.2 10.604 112.852 10.82C112.492 11.036 112.072 11.144 111.592 11.144C110.824 11.144 110.248 10.88 109.852 10.34C109.444 9.812 109.252 9.14 109.252 8.348C109.252 7.976 109.288 7.604 109.384 7.22C109.48 6.848 109.624 6.488 109.816 6.152C110.008 5.816 110.236 5.504 110.5 5.24C110.764 4.976 111.088 4.772 111.46 4.616C111.82 4.46 112.216 4.376 112.648 4.376C113.152 4.376 113.572 4.484 113.908 4.7C114.244 4.916 114.472 5.204 114.616 5.54L115.468 1.856H116.536L114.424 11ZM117.965 4.496H119.033L117.533 11H116.465L117.965 4.496ZM119.429 3.02H118.241L118.541 1.736H119.729L119.429 3.02ZM124.451 2.804H123.779C123.419 2.804 123.179 2.876 123.035 3.02C122.891 3.164 122.783 3.404 122.711 3.716L122.531 4.496H123.887L123.671 5.444H122.315L121.031 11H119.963L121.247 5.444H120.203L120.419 4.496H121.463L121.679 3.536C121.823 2.912 122.063 2.48 122.399 2.228C122.735 1.988 123.191 1.856 123.755 1.856H124.667L124.451 2.804ZM125.277 4.496H126.345L124.845 11H123.777L125.277 4.496ZM126.741 3.02H125.553L125.853 1.736H127.041L126.741 3.02ZM131.62 8.672H132.676C132.532 9.404 132.196 10.004 131.668 10.46C131.128 10.916 130.504 11.144 129.796 11.144C128.992 11.144 128.368 10.868 127.936 10.292C127.504 9.728 127.288 9.032 127.288 8.216C127.288 7.592 127.408 6.992 127.66 6.416C127.9 5.84 128.296 5.36 128.824 4.964C129.352 4.58 129.976 4.376 130.696 4.376C131.392 4.376 131.968 4.568 132.4 4.94C132.832 5.312 133.048 5.816 133.048 6.452C133.048 6.596 133.036 6.692 133.036 6.752H132.004C132.004 6.74 132.004 6.716 132.004 6.68C132.004 6.644 132.016 6.62 132.016 6.596C132.016 6.2 131.872 5.888 131.596 5.648C131.32 5.42 130.984 5.3 130.576 5.3C129.904 5.3 129.364 5.6 128.956 6.2C128.548 6.8 128.344 7.472 128.344 8.204C128.344 8.78 128.476 9.248 128.752 9.62C129.016 9.992 129.412 10.172 129.94 10.172C130.384 10.172 130.744 10.04 131.032 9.752C131.308 9.476 131.5 9.116 131.62 8.672ZM138.178 8.168L138.286 7.676C138.142 7.796 137.818 7.88 137.338 7.928L136.414 8.024C136.174 8.048 135.982 8.084 135.814 8.12C135.646 8.168 135.466 8.228 135.298 8.312C135.13 8.396 134.998 8.516 134.914 8.66C134.818 8.816 134.782 8.996 134.782 9.212C134.782 9.548 134.878 9.788 135.07 9.956C135.262 10.124 135.526 10.196 135.838 10.196C136.318 10.196 136.798 10.016 137.266 9.656C137.722 9.296 138.034 8.804 138.178 8.168ZM139.57 6.704L138.598 11H137.566L137.806 9.944C137.266 10.748 136.558 11.144 135.682 11.144C135.37 11.144 135.07 11.096 134.794 10.988C134.518 10.892 134.278 10.688 134.062 10.4C133.846 10.112 133.75 9.74 133.75 9.296C133.75 8.696 133.93 8.228 134.302 7.892C134.674 7.556 135.178 7.34 135.802 7.268L137.626 7.064C138.298 6.992 138.646 6.692 138.646 6.164C138.646 5.552 138.214 5.24 137.35 5.24C136.378 5.24 135.802 5.636 135.634 6.428H134.578C134.974 5.06 135.91 4.376 137.374 4.376C138.082 4.376 138.634 4.532 139.042 4.832C139.438 5.144 139.642 5.564 139.642 6.116C139.642 6.308 139.618 6.5 139.57 6.704ZM143.571 11H142.671C141.699 11 141.219 10.604 141.219 9.812C141.219 9.62 141.243 9.416 141.291 9.2L142.155 5.444H140.907L141.123 4.496H142.371L142.779 2.756L143.907 2.456L143.439 4.496H144.927L144.711 5.444H143.223L142.371 9.14C142.335 9.272 142.323 9.404 142.323 9.524C142.323 9.884 142.539 10.052 142.983 10.052H143.787L143.571 11ZM146.535 4.496H147.603L146.103 11H145.035L146.535 4.496ZM147.999 3.02H146.811L147.111 1.736H148.299L147.999 3.02ZM153.562 7.292C153.562 6.644 153.406 6.164 153.118 5.828C152.83 5.504 152.434 5.336 151.954 5.336C151.282 5.336 150.73 5.624 150.274 6.188C149.818 6.752 149.602 7.436 149.602 8.24C149.602 8.888 149.746 9.368 150.046 9.692C150.346 10.028 150.742 10.184 151.234 10.184C151.894 10.184 152.446 9.908 152.89 9.344C153.334 8.792 153.562 8.108 153.562 7.292ZM152.05 4.376C152.818 4.376 153.43 4.628 153.91 5.108C154.39 5.588 154.63 6.284 154.63 7.196C154.63 8.312 154.294 9.248 153.622 10.004C152.95 10.772 152.11 11.144 151.102 11.144C150.334 11.144 149.71 10.904 149.242 10.424C148.762 9.944 148.534 9.236 148.534 8.324C148.534 7.208 148.87 6.272 149.542 5.516C150.214 4.76 151.042 4.376 152.05 4.376ZM159.952 4.376C160.576 4.376 161.032 4.544 161.344 4.88C161.656 5.216 161.812 5.624 161.812 6.116C161.812 6.308 161.788 6.488 161.74 6.68L160.744 11H159.676L160.648 6.788C160.684 6.62 160.708 6.464 160.708 6.32C160.708 5.672 160.36 5.336 159.688 5.336C159.124 5.336 158.62 5.564 158.176 6.008C157.732 6.452 157.42 7.04 157.252 7.784L156.508 11H155.44L156.94 4.496H157.996L157.744 5.576C158.368 4.784 159.1 4.376 159.952 4.376ZM165.84 4.376C166.56 4.376 167.148 4.568 167.592 4.928C168.036 5.288 168.264 5.792 168.264 6.428H167.196C167.172 6.092 167.04 5.816 166.8 5.624C166.56 5.432 166.224 5.324 165.792 5.324C165.384 5.324 165.06 5.408 164.82 5.564C164.568 5.732 164.448 5.96 164.448 6.272C164.448 6.464 164.508 6.62 164.628 6.74C164.748 6.872 164.868 6.968 165.012 7.016C165.144 7.076 165.384 7.16 165.744 7.268C165.852 7.316 165.936 7.34 165.996 7.352C166.284 7.448 166.512 7.532 166.68 7.604C166.848 7.676 167.04 7.784 167.232 7.904C167.424 8.036 167.556 8.192 167.652 8.384C167.736 8.576 167.784 8.804 167.784 9.056C167.784 9.704 167.52 10.22 166.992 10.592C166.464 10.964 165.852 11.144 165.156 11.144C164.448 11.144 163.848 10.952 163.356 10.556C162.864 10.172 162.612 9.62 162.6 8.912H163.704C163.728 9.344 163.872 9.668 164.16 9.884C164.448 10.1 164.808 10.208 165.252 10.208C165.636 10.208 165.972 10.124 166.26 9.956C166.548 9.788 166.692 9.548 166.692 9.224C166.692 8.984 166.596 8.804 166.416 8.672C166.236 8.552 165.96 8.42 165.576 8.288C164.856 8.048 164.364 7.844 164.124 7.676C163.62 7.34 163.368 6.884 163.368 6.296C163.368 5.684 163.596 5.216 164.076 4.88C164.556 4.544 165.144 4.376 165.84 4.376ZM174.099 11H173.199C172.227 11 171.747 10.604 171.747 9.812C171.747 9.62 171.771 9.416 171.819 9.2L172.683 5.444H171.435L171.651 4.496H172.899L173.307 2.756L174.435 2.456L173.967 4.496H175.455L175.239 5.444H173.751L172.899 9.14C172.863 9.272 172.851 9.404 172.851 9.524C172.851 9.884 173.067 10.052 173.511 10.052H174.315L174.099 11ZM180.737 7.292C180.737 6.644 180.581 6.164 180.293 5.828C180.005 5.504 179.609 5.336 179.129 5.336C178.457 5.336 177.905 5.624 177.449 6.188C176.993 6.752 176.777 7.436 176.777 8.24C176.777 8.888 176.921 9.368 177.221 9.692C177.521 10.028 177.917 10.184 178.409 10.184C179.069 10.184 179.621 9.908 180.065 9.344C180.509 8.792 180.737 8.108 180.737 7.292ZM179.225 4.376C179.993 4.376 180.605 4.628 181.085 5.108C181.565 5.588 181.805 6.284 181.805 7.196C181.805 8.312 181.469 9.248 180.797 10.004C180.125 10.772 179.285 11.144 178.277 11.144C177.509 11.144 176.885 10.904 176.417 10.424C175.937 9.944 175.709 9.236 175.709 8.324C175.709 7.208 176.045 6.272 176.717 5.516C177.389 4.76 178.217 4.376 179.225 4.376ZM191.576 4.496L187.16 12.128C186.776 12.788 186.188 13.112 185.396 13.112H184.484L184.7 12.164H185.18C185.492 12.164 185.756 12.116 185.948 11.996C186.14 11.876 186.332 11.672 186.512 11.384L186.956 10.628L185.552 4.496H186.632L187.664 9.452L190.412 4.496H191.576ZM196.769 7.292C196.769 6.644 196.613 6.164 196.325 5.828C196.037 5.504 195.641 5.336 195.161 5.336C194.489 5.336 193.937 5.624 193.481 6.188C193.025 6.752 192.809 7.436 192.809 8.24C192.809 8.888 192.953 9.368 193.253 9.692C193.553 10.028 193.949 10.184 194.441 10.184C195.101 10.184 195.653 9.908 196.097 9.344C196.541 8.792 196.769 8.108 196.769 7.292ZM195.257 4.376C196.025 4.376 196.637 4.628 197.117 5.108C197.597 5.588 197.837 6.284 197.837 7.196C197.837 8.312 197.501 9.248 196.829 10.004C196.157 10.772 195.317 11.144 194.309 11.144C193.541 11.144 192.917 10.904 192.449 10.424C191.969 9.944 191.741 9.236 191.741 8.324C191.741 7.208 192.077 6.272 192.749 5.516C193.421 4.76 194.249 4.376 195.257 4.376ZM203.819 11H202.787L203.075 9.764C202.607 10.64 201.863 11.072 200.855 11.072C200.231 11.072 199.775 10.904 199.487 10.544C199.199 10.196 199.055 9.764 199.055 9.248C199.055 9.032 199.079 8.828 199.127 8.636L200.075 4.496H201.143L200.195 8.636C200.147 8.804 200.135 8.948 200.135 9.092C200.135 9.404 200.207 9.644 200.375 9.836C200.531 10.028 200.783 10.124 201.143 10.124C201.635 10.124 202.103 9.932 202.547 9.524C202.991 9.116 203.303 8.54 203.483 7.784L204.251 4.496H205.319L203.819 11ZM210.393 5.444H210.093C208.761 5.444 207.933 6.176 207.597 7.616L206.817 11H205.749L207.249 4.496H208.305L208.041 5.624C208.569 4.832 209.325 4.424 210.321 4.424H210.633L210.393 5.444ZM218.793 7.568L218.025 3.344L215.469 7.568H218.793ZM218.973 8.564H214.869L213.393 11H212.169L217.713 2H218.745L220.509 11H219.417L218.973 8.564ZM224.025 2H225.129L223.053 11H221.949L224.025 2ZM231.894 5.348C231.21 5.348 230.646 5.636 230.214 6.212C229.782 6.788 229.566 7.436 229.566 8.144C229.566 8.696 229.698 9.152 229.986 9.536C230.274 9.92 230.682 10.1 231.222 10.1C231.894 10.1 232.446 9.812 232.854 9.236C233.262 8.66 233.478 8.012 233.478 7.268C233.478 6.716 233.346 6.26 233.082 5.9C232.818 5.54 232.422 5.348 231.894 5.348ZM232.266 4.376C232.998 4.376 233.562 4.64 233.946 5.156C234.33 5.684 234.534 6.32 234.534 7.076C234.534 7.724 234.402 8.336 234.15 8.936C233.886 9.536 233.502 10.028 232.974 10.436C232.446 10.844 231.858 11.048 231.186 11.048C230.166 11.048 229.506 10.616 229.218 9.74L228.366 13.472H227.298L229.362 4.496H230.442L230.226 5.372C230.73 4.712 231.402 4.376 232.266 4.376ZM240.667 7.292C240.667 6.644 240.511 6.164 240.223 5.828C239.935 5.504 239.539 5.336 239.059 5.336C238.387 5.336 237.835 5.624 237.379 6.188C236.923 6.752 236.707 7.436 236.707 8.24C236.707 8.888 236.851 9.368 237.151 9.692C237.451 10.028 237.847 10.184 238.339 10.184C238.999 10.184 239.551 9.908 239.995 9.344C240.439 8.792 240.667 8.108 240.667 7.292ZM239.155 4.376C239.923 4.376 240.535 4.628 241.015 5.108C241.495 5.588 241.735 6.284 241.735 7.196C241.735 8.312 241.399 9.248 240.727 10.004C240.055 10.772 239.215 11.144 238.207 11.144C237.439 11.144 236.815 10.904 236.347 10.424C235.867 9.944 235.639 9.236 235.639 8.324C235.639 7.208 235.975 6.272 236.647 5.516C237.319 4.76 238.147 4.376 239.155 4.376ZM244.646 1.856H245.714L243.602 11H242.534L244.646 1.856ZM247.094 4.496H248.162L246.662 11H245.594L247.094 4.496ZM248.558 3.02H247.37L247.67 1.736H248.858L248.558 3.02ZM253.436 8.672H254.492C254.348 9.404 254.012 10.004 253.484 10.46C252.944 10.916 252.32 11.144 251.612 11.144C250.808 11.144 250.184 10.868 249.752 10.292C249.32 9.728 249.104 9.032 249.104 8.216C249.104 7.592 249.224 6.992 249.476 6.416C249.716 5.84 250.112 5.36 250.64 4.964C251.168 4.58 251.792 4.376 252.512 4.376C253.208 4.376 253.784 4.568 254.216 4.94C254.648 5.312 254.864 5.816 254.864 6.452C254.864 6.596 254.852 6.692 254.852 6.752H253.82C253.82 6.74 253.82 6.716 253.82 6.68C253.82 6.644 253.832 6.62 253.832 6.596C253.832 6.2 253.688 5.888 253.412 5.648C253.136 5.42 252.8 5.3 252.392 5.3C251.72 5.3 251.18 5.6 250.772 6.2C250.364 6.8 250.16 7.472 250.16 8.204C250.16 8.78 250.292 9.248 250.568 9.62C250.832 9.992 251.228 10.172 251.756 10.172C252.2 10.172 252.56 10.04 252.848 9.752C253.124 9.476 253.316 9.116 253.436 8.672ZM262.088 4.496L257.672 12.128C257.288 12.788 256.7 13.112 255.908 13.112H254.996L255.212 12.164H255.692C256.004 12.164 256.268 12.116 256.46 11.996C256.652 11.876 256.844 11.672 257.024 11.384L257.468 10.628L256.064 4.496H257.144L258.176 9.452L260.924 4.496H262.088ZM263.509 9.56L263.209 10.868C263.041 11.588 262.741 12.116 262.333 12.428C261.925 12.752 261.385 12.932 260.725 12.968V12.332C261.241 12.284 261.613 12.152 261.841 11.924C262.057 11.708 262.225 11.372 262.333 10.94H261.733L262.057 9.56H263.509ZM272.466 11H271.566C270.594 11 270.114 10.604 270.114 9.812C270.114 9.62 270.138 9.416 270.186 9.2L271.05 5.444H269.802L270.018 4.496H271.266L271.674 2.756L272.802 2.456L272.334 4.496H273.822L273.606 5.444H272.118L271.266 9.14C271.23 9.272 271.218 9.404 271.218 9.524C271.218 9.884 271.434 10.052 271.878 10.052H272.682L272.466 11ZM278.514 5.444H278.214C276.882 5.444 276.054 6.176 275.718 7.616L274.938 11H273.87L275.37 4.496H276.426L276.162 5.624C276.69 4.832 277.446 4.424 278.442 4.424H278.754L278.514 5.444ZM285.349 4.496L280.933 12.128C280.549 12.788 279.961 13.112 279.169 13.112H278.257L278.473 12.164H278.953C279.265 12.164 279.529 12.116 279.721 11.996C279.913 11.876 280.105 11.672 280.285 11.384L280.729 10.628L279.325 4.496H280.405L281.437 9.452L284.185 4.496H285.349ZM291.909 8.672H292.965C292.821 9.404 292.485 10.004 291.957 10.46C291.417 10.916 290.793 11.144 290.085 11.144C289.281 11.144 288.657 10.868 288.225 10.292C287.793 9.728 287.577 9.032 287.577 8.216C287.577 7.592 287.697 6.992 287.949 6.416C288.189 5.84 288.585 5.36 289.113 4.964C289.641 4.58 290.265 4.376 290.985 4.376C291.681 4.376 292.257 4.568 292.689 4.94C293.121 5.312 293.337 5.816 293.337 6.452C293.337 6.596 293.325 6.692 293.325 6.752H292.293C292.293 6.74 292.293 6.716 292.293 6.68C292.293 6.644 292.305 6.62 292.305 6.596C292.305 6.2 292.161 5.888 291.885 5.648C291.609 5.42 291.273 5.3 290.865 5.3C290.193 5.3 289.653 5.6 289.245 6.2C288.837 6.8 288.633 7.472 288.633 8.204C288.633 8.78 288.765 9.248 289.041 9.62C289.305 9.992 289.701 10.172 290.229 10.172C290.673 10.172 291.033 10.04 291.321 9.752C291.597 9.476 291.789 9.116 291.909 8.672ZM296.103 1.856H297.171L295.059 11H293.991L296.103 1.856ZM298.551 4.496H299.619L298.119 11H297.051L298.551 4.496ZM300.015 3.02H298.827L299.127 1.736H300.315L300.015 3.02ZM304.893 8.672H305.949C305.805 9.404 305.469 10.004 304.941 10.46C304.401 10.916 303.777 11.144 303.069 11.144C302.265 11.144 301.641 10.868 301.209 10.292C300.777 9.728 300.561 9.032 300.561 8.216C300.561 7.592 300.681 6.992 300.933 6.416C301.173 5.84 301.569 5.36 302.097 4.964C302.625 4.58 303.249 4.376 303.969 4.376C304.665 4.376 305.241 4.568 305.673 4.94C306.105 5.312 306.321 5.816 306.321 6.452C306.321 6.596 306.309 6.692 306.309 6.752H305.277C305.277 6.74 305.277 6.716 305.277 6.68C305.277 6.644 305.289 6.62 305.289 6.596C305.289 6.2 305.145 5.888 304.869 5.648C304.593 5.42 304.257 5.3 303.849 5.3C303.177 5.3 302.637 5.6 302.229 6.2C301.821 6.8 301.617 7.472 301.617 8.204C301.617 8.78 301.749 9.248 302.025 9.62C302.289 9.992 302.685 10.172 303.213 10.172C303.657 10.172 304.017 10.04 304.305 9.752C304.581 9.476 304.773 9.116 304.893 8.672ZM310.647 7.268L312.471 11H311.319L309.843 7.952L308.475 9.128L308.043 11H306.975L309.087 1.856H310.155L308.823 7.604L312.423 4.496H313.887L310.647 7.268ZM315.18 4.496H316.248L314.748 11H313.68L315.18 4.496ZM316.644 3.02H315.456L315.756 1.736H316.944L316.644 3.02ZM321.366 4.376C321.99 4.376 322.446 4.544 322.758 4.88C323.07 5.216 323.226 5.624 323.226 6.116C323.226 6.308 323.202 6.488 323.154 6.68L322.158 11H321.09L322.062 6.788C322.098 6.62 322.122 6.464 322.122 6.32C322.122 5.672 321.774 5.336 321.102 5.336C320.538 5.336 320.034 5.564 319.59 6.008C319.146 6.452 318.834 7.04 318.666 7.784L317.922 11H316.854L318.354 4.496H319.41L319.158 5.576C319.782 4.784 320.514 4.376 321.366 4.376ZM327.014 9.812C327.662 9.812 328.202 9.548 328.61 8.996C329.018 8.456 329.234 7.856 329.234 7.184C329.234 6.644 329.09 6.188 328.826 5.828C328.55 5.468 328.142 5.276 327.614 5.276C326.942 5.276 326.402 5.54 326.018 6.068C325.622 6.596 325.43 7.208 325.43 7.88C325.43 8.48 325.562 8.96 325.838 9.296C326.102 9.644 326.498 9.812 327.014 9.812ZM330.95 4.496L329.534 10.736C329.09 12.656 328.01 13.616 326.306 13.616C325.538 13.616 324.926 13.424 324.446 13.016C323.966 12.62 323.738 12.032 323.75 11.264H324.758C324.758 11.672 324.878 12.008 325.118 12.296C325.358 12.584 325.754 12.716 326.306 12.716C327.458 12.716 328.166 12.08 328.454 10.784L328.646 9.884C328.142 10.472 327.506 10.76 326.762 10.76C325.994 10.76 325.418 10.508 325.01 9.992C324.602 9.488 324.398 8.804 324.398 7.964C324.398 7.364 324.506 6.8 324.746 6.272C324.986 5.744 325.358 5.288 325.862 4.928C326.366 4.568 326.966 4.376 327.65 4.376C328.106 4.376 328.514 4.484 328.874 4.676C329.234 4.88 329.486 5.168 329.642 5.54L329.882 4.496H330.95ZM339.151 7.292C339.151 6.644 338.995 6.164 338.707 5.828C338.419 5.504 338.023 5.336 337.543 5.336C336.871 5.336 336.319 5.624 335.863 6.188C335.407 6.752 335.191 7.436 335.191 8.24C335.191 8.888 335.335 9.368 335.635 9.692C335.935 10.028 336.331 10.184 336.823 10.184C337.483 10.184 338.035 9.908 338.479 9.344C338.923 8.792 339.151 8.108 339.151 7.292ZM337.639 4.376C338.407 4.376 339.019 4.628 339.499 5.108C339.979 5.588 340.219 6.284 340.219 7.196C340.219 8.312 339.883 9.248 339.211 10.004C338.539 10.772 337.699 11.144 336.691 11.144C335.923 11.144 335.299 10.904 334.831 10.424C334.351 9.944 334.123 9.236 334.123 8.324C334.123 7.208 334.459 6.272 335.131 5.516C335.803 4.76 336.631 4.376 337.639 4.376ZM345.542 4.376C346.166 4.376 346.622 4.544 346.934 4.88C347.246 5.216 347.402 5.624 347.402 6.116C347.402 6.308 347.378 6.488 347.33 6.68L346.334 11H345.266L346.238 6.788C346.274 6.62 346.298 6.464 346.298 6.32C346.298 5.672 345.95 5.336 345.278 5.336C344.714 5.336 344.21 5.564 343.766 6.008C343.322 6.452 343.01 7.04 342.842 7.784L342.098 11H341.03L342.53 4.496H343.586L343.334 5.576C343.958 4.784 344.69 4.376 345.542 4.376ZM354.951 8.168L355.059 7.676C354.915 7.796 354.591 7.88 354.111 7.928L353.187 8.024C352.947 8.048 352.755 8.084 352.587 8.12C352.419 8.168 352.239 8.228 352.071 8.312C351.903 8.396 351.771 8.516 351.687 8.66C351.591 8.816 351.555 8.996 351.555 9.212C351.555 9.548 351.651 9.788 351.843 9.956C352.035 10.124 352.299 10.196 352.611 10.196C353.091 10.196 353.571 10.016 354.039 9.656C354.495 9.296 354.807 8.804 354.951 8.168ZM356.343 6.704L355.371 11H354.339L354.579 9.944C354.039 10.748 353.331 11.144 352.455 11.144C352.143 11.144 351.843 11.096 351.567 10.988C351.291 10.892 351.051 10.688 350.835 10.4C350.619 10.112 350.523 9.74 350.523 9.296C350.523 8.696 350.703 8.228 351.075 7.892C351.447 7.556 351.951 7.34 352.575 7.268L354.399 7.064C355.071 6.992 355.419 6.692 355.419 6.164C355.419 5.552 354.987 5.24 354.123 5.24C353.151 5.24 352.575 5.636 352.407 6.428H351.351C351.747 5.06 352.683 4.376 354.147 4.376C354.855 4.376 355.407 4.532 355.815 4.832C356.211 5.144 356.415 5.564 356.415 6.116C356.415 6.308 356.391 6.5 356.343 6.704ZM362.762 4.376C363.482 4.376 364.07 4.568 364.514 4.928C364.958 5.288 365.186 5.792 365.186 6.428H364.118C364.094 6.092 363.962 5.816 363.722 5.624C363.482 5.432 363.146 5.324 362.714 5.324C362.306 5.324 361.982 5.408 361.742 5.564C361.49 5.732 361.37 5.96 361.37 6.272C361.37 6.464 361.43 6.62 361.55 6.74C361.67 6.872 361.79 6.968 361.934 7.016C362.066 7.076 362.306 7.16 362.666 7.268C362.774 7.316 362.858 7.34 362.918 7.352C363.206 7.448 363.434 7.532 363.602 7.604C363.77 7.676 363.962 7.784 364.154 7.904C364.346 8.036 364.478 8.192 364.574 8.384C364.658 8.576 364.706 8.804 364.706 9.056C364.706 9.704 364.442 10.22 363.914 10.592C363.386 10.964 362.774 11.144 362.078 11.144C361.37 11.144 360.77 10.952 360.278 10.556C359.786 10.172 359.534 9.62 359.522 8.912H360.626C360.65 9.344 360.794 9.668 361.082 9.884C361.37 10.1 361.73 10.208 362.174 10.208C362.558 10.208 362.894 10.124 363.182 9.956C363.47 9.788 363.614 9.548 363.614 9.224C363.614 8.984 363.518 8.804 363.338 8.672C363.158 8.552 362.882 8.42 362.498 8.288C361.778 8.048 361.286 7.844 361.046 7.676C360.542 7.34 360.29 6.884 360.29 6.296C360.29 5.684 360.518 5.216 360.998 4.88C361.478 4.544 362.066 4.376 362.762 4.376ZM369.44 5.3C368.972 5.3 368.54 5.456 368.132 5.768C367.724 6.08 367.436 6.536 367.256 7.148H370.784C370.796 7.052 370.808 6.92 370.808 6.74C370.808 5.78 370.352 5.3 369.44 5.3ZM371.756 8.012H367.1C367.064 8.192 367.052 8.336 367.052 8.444C367.052 8.9 367.172 9.308 367.436 9.656C367.688 10.016 368.096 10.184 368.66 10.184C369.548 10.184 370.136 9.764 370.436 8.924H371.444C371.204 9.656 370.82 10.208 370.304 10.58C369.776 10.964 369.188 11.144 368.54 11.144C367.748 11.144 367.136 10.892 366.716 10.364C366.284 9.848 366.08 9.152 366.08 8.288C366.08 7.184 366.404 6.248 367.052 5.504C367.7 4.76 368.516 4.376 369.488 4.376C370.304 4.376 370.916 4.616 371.3 5.084C371.684 5.552 371.876 6.164 371.876 6.92C371.876 7.232 371.828 7.604 371.756 8.012ZM377.268 8.672H378.324C378.18 9.404 377.844 10.004 377.316 10.46C376.776 10.916 376.152 11.144 375.444 11.144C374.64 11.144 374.016 10.868 373.584 10.292C373.152 9.728 372.936 9.032 372.936 8.216C372.936 7.592 373.056 6.992 373.308 6.416C373.548 5.84 373.944 5.36 374.472 4.964C375 4.58 375.624 4.376 376.344 4.376C377.04 4.376 377.616 4.568 378.048 4.94C378.48 5.312 378.696 5.816 378.696 6.452C378.696 6.596 378.684 6.692 378.684 6.752H377.652C377.652 6.74 377.652 6.716 377.652 6.68C377.652 6.644 377.664 6.62 377.664 6.596C377.664 6.2 377.52 5.888 377.244 5.648C376.968 5.42 376.632 5.3 376.224 5.3C375.552 5.3 375.012 5.6 374.604 6.2C374.196 6.8 373.992 7.472 373.992 8.204C373.992 8.78 374.124 9.248 374.4 9.62C374.664 9.992 375.06 10.172 375.588 10.172C376.032 10.172 376.392 10.04 376.68 9.752C376.956 9.476 377.148 9.116 377.268 8.672ZM382.341 11H381.441C380.469 11 379.989 10.604 379.989 9.812C379.989 9.62 380.013 9.416 380.061 9.2L380.925 5.444H379.677L379.893 4.496H381.141L381.549 2.756L382.677 2.456L382.209 4.496H383.697L383.481 5.444H381.993L381.141 9.14C381.105 9.272 381.093 9.404 381.093 9.524C381.093 9.884 381.309 10.052 381.753 10.052H382.557L382.341 11ZM385.305 4.496H386.373L384.873 11H383.805L385.305 4.496ZM386.769 3.02H385.581L385.881 1.736H387.069L386.769 3.02ZM392.331 7.292C392.331 6.644 392.175 6.164 391.887 5.828C391.599 5.504 391.203 5.336 390.723 5.336C390.051 5.336 389.499 5.624 389.043 6.188C388.587 6.752 388.371 7.436 388.371 8.24C388.371 8.888 388.515 9.368 388.815 9.692C389.115 10.028 389.511 10.184 390.003 10.184C390.663 10.184 391.215 9.908 391.659 9.344C392.103 8.792 392.331 8.108 392.331 7.292ZM390.819 4.376C391.587 4.376 392.199 4.628 392.679 5.108C393.159 5.588 393.399 6.284 393.399 7.196C393.399 8.312 393.063 9.248 392.391 10.004C391.719 10.772 390.879 11.144 389.871 11.144C389.103 11.144 388.479 10.904 388.011 10.424C387.531 9.944 387.303 9.236 387.303 8.324C387.303 7.208 387.639 6.272 388.311 5.516C388.983 4.76 389.811 4.376 390.819 4.376ZM398.722 4.376C399.346 4.376 399.802 4.544 400.114 4.88C400.426 5.216 400.582 5.624 400.582 6.116C400.582 6.308 400.558 6.488 400.51 6.68L399.514 11H398.446L399.418 6.788C399.454 6.62 399.478 6.464 399.478 6.32C399.478 5.672 399.13 5.336 398.458 5.336C397.894 5.336 397.39 5.564 396.946 6.008C396.502 6.452 396.19 7.04 396.022 7.784L395.278 11H394.21L395.71 4.496H396.766L396.514 5.576C397.138 4.784 397.87 4.376 398.722 4.376ZM406.763 11H405.863C404.891 11 404.411 10.604 404.411 9.812C404.411 9.62 404.435 9.416 404.483 9.2L405.347 5.444H404.099L404.315 4.496H405.563L405.971 2.756L407.099 2.456L406.631 4.496H408.119L407.903 5.444H406.415L405.563 9.14C405.527 9.272 405.515 9.404 405.515 9.524C405.515 9.884 405.731 10.052 406.175 10.052H406.979L406.763 11ZM413.401 7.292C413.401 6.644 413.245 6.164 412.957 5.828C412.669 5.504 412.273 5.336 411.793 5.336C411.121 5.336 410.569 5.624 410.113 6.188C409.657 6.752 409.441 7.436 409.441 8.24C409.441 8.888 409.585 9.368 409.885 9.692C410.185 10.028 410.581 10.184 411.073 10.184C411.733 10.184 412.285 9.908 412.729 9.344C413.173 8.792 413.401 8.108 413.401 7.292ZM411.889 4.376C412.657 4.376 413.269 4.628 413.749 5.108C414.229 5.588 414.469 6.284 414.469 7.196C414.469 8.312 414.133 9.248 413.461 10.004C412.789 10.772 411.949 11.144 410.941 11.144C410.173 11.144 409.549 10.904 409.081 10.424C408.601 9.944 408.373 9.236 408.373 8.324C408.373 7.208 408.709 6.272 409.381 5.516C410.053 4.76 410.881 4.376 411.889 4.376ZM420.676 4.376C421.396 4.376 421.984 4.568 422.428 4.928C422.872 5.288 423.1 5.792 423.1 6.428H422.032C422.008 6.092 421.876 5.816 421.636 5.624C421.396 5.432 421.06 5.324 420.628 5.324C420.22 5.324 419.896 5.408 419.656 5.564C419.404 5.732 419.284 5.96 419.284 6.272C419.284 6.464 419.344 6.62 419.464 6.74C419.584 6.872 419.704 6.968 419.848 7.016C419.98 7.076 420.22 7.16 420.58 7.268C420.688 7.316 420.772 7.34 420.832 7.352C421.12 7.448 421.348 7.532 421.516 7.604C421.684 7.676 421.876 7.784 422.068 7.904C422.26 8.036 422.392 8.192 422.488 8.384C422.572 8.576 422.62 8.804 422.62 9.056C422.62 9.704 422.356 10.22 421.828 10.592C421.3 10.964 420.688 11.144 419.992 11.144C419.284 11.144 418.684 10.952 418.192 10.556C417.7 10.172 417.448 9.62 417.436 8.912H418.54C418.564 9.344 418.708 9.668 418.996 9.884C419.284 10.1 419.644 10.208 420.088 10.208C420.472 10.208 420.808 10.124 421.096 9.956C421.384 9.788 421.528 9.548 421.528 9.224C421.528 8.984 421.432 8.804 421.252 8.672C421.072 8.552 420.796 8.42 420.412 8.288C419.692 8.048 419.2 7.844 418.96 7.676C418.456 7.34 418.204 6.884 418.204 6.296C418.204 5.684 418.432 5.216 418.912 4.88C419.392 4.544 419.98 4.376 420.676 4.376ZM426.649 11H425.749C424.777 11 424.297 10.604 424.297 9.812C424.297 9.62 424.321 9.416 424.369 9.2L425.233 5.444H423.985L424.201 4.496H425.449L425.857 2.756L426.985 2.456L426.517 4.496H428.005L427.789 5.444H426.301L425.449 9.14C425.413 9.272 425.401 9.404 425.401 9.524C425.401 9.884 425.617 10.052 426.061 10.052H426.865L426.649 11ZM432.4 8.168L432.508 7.676C432.364 7.796 432.04 7.88 431.56 7.928L430.636 8.024C430.396 8.048 430.204 8.084 430.036 8.12C429.868 8.168 429.688 8.228 429.52 8.312C429.352 8.396 429.22 8.516 429.136 8.66C429.04 8.816 429.004 8.996 429.004 9.212C429.004 9.548 429.1 9.788 429.292 9.956C429.484 10.124 429.748 10.196 430.06 10.196C430.54 10.196 431.02 10.016 431.488 9.656C431.944 9.296 432.256 8.804 432.4 8.168ZM433.792 6.704L432.82 11H431.788L432.028 9.944C431.488 10.748 430.78 11.144 429.904 11.144C429.592 11.144 429.292 11.096 429.016 10.988C428.74 10.892 428.5 10.688 428.284 10.4C428.068 10.112 427.972 9.74 427.972 9.296C427.972 8.696 428.152 8.228 428.524 7.892C428.896 7.556 429.4 7.34 430.024 7.268L431.848 7.064C432.52 6.992 432.868 6.692 432.868 6.164C432.868 5.552 432.436 5.24 431.572 5.24C430.6 5.24 430.024 5.636 429.856 6.428H428.8C429.196 5.06 430.132 4.376 431.596 4.376C432.304 4.376 432.856 4.532 433.264 4.832C433.66 5.144 433.864 5.564 433.864 6.116C433.864 6.308 433.84 6.5 433.792 6.704ZM439.342 5.444H439.042C437.71 5.444 436.882 6.176 436.546 7.616L435.766 11H434.698L436.198 4.496H437.254L436.99 5.624C437.518 4.832 438.274 4.424 439.27 4.424H439.582L439.342 5.444ZM442.716 11H441.816C440.844 11 440.364 10.604 440.364 9.812C440.364 9.62 440.388 9.416 440.436 9.2L441.3 5.444H440.052L440.268 4.496H441.516L441.924 2.756L443.052 2.456L442.584 4.496H444.072L443.856 5.444H442.368L441.516 9.14C441.48 9.272 441.468 9.404 441.468 9.524C441.468 9.884 441.684 10.052 442.128 10.052H442.932L442.716 11ZM450.089 5.3C449.621 5.3 449.189 5.456 448.781 5.768C448.373 6.08 448.085 6.536 447.905 7.148H451.433C451.445 7.052 451.457 6.92 451.457 6.74C451.457 5.78 451.001 5.3 450.089 5.3ZM452.405 8.012H447.749C447.713 8.192 447.701 8.336 447.701 8.444C447.701 8.9 447.821 9.308 448.085 9.656C448.337 10.016 448.745 10.184 449.309 10.184C450.197 10.184 450.785 9.764 451.085 8.924H452.093C451.853 9.656 451.469 10.208 450.953 10.58C450.425 10.964 449.837 11.144 449.189 11.144C448.397 11.144 447.785 10.892 447.365 10.364C446.933 9.848 446.729 9.152 446.729 8.288C446.729 7.184 447.053 6.248 447.701 5.504C448.349 4.76 449.165 4.376 450.137 4.376C450.953 4.376 451.565 4.616 451.949 5.084C452.333 5.552 452.525 6.164 452.525 6.92C452.525 7.232 452.477 7.604 452.405 8.012ZM456.969 5.288C456.261 5.288 455.685 5.6 455.253 6.224C454.809 6.848 454.593 7.544 454.593 8.288C454.593 8.84 454.713 9.284 454.977 9.644C455.241 10.004 455.625 10.172 456.129 10.172C456.609 10.172 457.029 10.028 457.401 9.716C457.773 9.404 458.049 9.032 458.229 8.588C458.409 8.156 458.505 7.7 458.505 7.22C458.505 6.668 458.373 6.2 458.121 5.84C457.869 5.48 457.485 5.288 456.969 5.288ZM458.721 11H457.689L457.941 9.908C457.761 10.292 457.497 10.604 457.149 10.82C456.789 11.036 456.369 11.144 455.889 11.144C455.121 11.144 454.545 10.88 454.149 10.34C453.741 9.812 453.549 9.14 453.549 8.348C453.549 7.976 453.585 7.604 453.681 7.22C453.777 6.848 453.921 6.488 454.113 6.152C454.305 5.816 454.533 5.504 454.797 5.24C455.061 4.976 455.385 4.772 455.757 4.616C456.117 4.46 456.513 4.376 456.945 4.376C457.449 4.376 457.869 4.484 458.205 4.7C458.541 4.916 458.769 5.204 458.913 5.54L459.765 1.856H460.833L458.721 11ZM462.262 4.496H463.33L461.83 11H460.762L462.262 4.496ZM463.726 3.02H462.538L462.838 1.736H464.026L463.726 3.02ZM467.032 11H466.132C465.16 11 464.68 10.604 464.68 9.812C464.68 9.62 464.704 9.416 464.752 9.2L465.616 5.444H464.368L464.584 4.496H465.832L466.24 2.756L467.368 2.456L466.9 4.496H468.388L468.172 5.444H466.684L465.832 9.14C465.796 9.272 465.784 9.404 465.784 9.524C465.784 9.884 466 10.052 466.444 10.052H467.248L467.032 11ZM469.996 4.496H471.064L469.564 11H468.496L469.996 4.496ZM471.46 3.02H470.272L470.572 1.736H471.76L471.46 3.02ZM476.183 4.376C476.807 4.376 477.263 4.544 477.575 4.88C477.887 5.216 478.043 5.624 478.043 6.116C478.043 6.308 478.019 6.488 477.971 6.68L476.975 11H475.907L476.879 6.788C476.915 6.62 476.939 6.464 476.939 6.32C476.939 5.672 476.591 5.336 475.919 5.336C475.355 5.336 474.851 5.564 474.407 6.008C473.963 6.452 473.651 7.04 473.483 7.784L472.739 11H471.671L473.171 4.496H474.227L473.975 5.576C474.599 4.784 475.331 4.376 476.183 4.376ZM481.83 9.812C482.478 9.812 483.018 9.548 483.426 8.996C483.834 8.456 484.05 7.856 484.05 7.184C484.05 6.644 483.906 6.188 483.642 5.828C483.366 5.468 482.958 5.276 482.43 5.276C481.758 5.276 481.218 5.54 480.834 6.068C480.438 6.596 480.246 7.208 480.246 7.88C480.246 8.48 480.378 8.96 480.654 9.296C480.918 9.644 481.314 9.812 481.83 9.812ZM485.766 4.496L484.35 10.736C483.906 12.656 482.826 13.616 481.122 13.616C480.354 13.616 479.742 13.424 479.262 13.016C478.782 12.62 478.554 12.032 478.566 11.264H479.574C479.574 11.672 479.694 12.008 479.934 12.296C480.174 12.584 480.57 12.716 481.122 12.716C482.274 12.716 482.982 12.08 483.27 10.784L483.462 9.884C482.958 10.472 482.322 10.76 481.578 10.76C480.81 10.76 480.234 10.508 479.826 9.992C479.418 9.488 479.214 8.804 479.214 7.964C479.214 7.364 479.322 6.8 479.562 6.272C479.802 5.744 480.174 5.288 480.678 4.928C481.182 4.568 481.782 4.376 482.466 4.376C482.922 4.376 483.33 4.484 483.69 4.676C484.05 4.88 484.302 5.168 484.458 5.54L484.698 4.496H485.766ZM491.712 11H490.812C489.84 11 489.36 10.604 489.36 9.812C489.36 9.62 489.384 9.416 489.432 9.2L490.296 5.444H489.048L489.264 4.496H490.512L490.92 2.756L492.048 2.456L491.58 4.496H493.068L492.852 5.444H491.364L490.512 9.14C490.476 9.272 490.464 9.404 490.464 9.524C490.464 9.884 490.68 10.052 491.124 10.052H491.928L491.712 11ZM497.628 4.376C498.228 4.376 498.696 4.544 499.008 4.88C499.32 5.216 499.476 5.624 499.476 6.104C499.476 6.296 499.452 6.488 499.404 6.68L498.408 11H497.34L498.312 6.788C498.348 6.644 498.372 6.5 498.372 6.356C498.372 6.068 498.288 5.828 498.132 5.636C497.964 5.444 497.712 5.336 497.364 5.336C496.788 5.336 496.284 5.564 495.84 6.008C495.396 6.452 495.096 7.04 494.928 7.784L494.184 11H493.116L495.228 1.856H496.296L495.444 5.552C496.068 4.772 496.788 4.376 497.628 4.376ZM503.96 5.3C503.492 5.3 503.06 5.456 502.652 5.768C502.244 6.08 501.956 6.536 501.776 7.148H505.304C505.316 7.052 505.328 6.92 505.328 6.74C505.328 5.78 504.872 5.3 503.96 5.3ZM506.276 8.012H501.62C501.584 8.192 501.572 8.336 501.572 8.444C501.572 8.9 501.692 9.308 501.956 9.656C502.208 10.016 502.616 10.184 503.18 10.184C504.068 10.184 504.656 9.764 504.956 8.924H505.964C505.724 9.656 505.34 10.208 504.824 10.58C504.296 10.964 503.708 11.144 503.06 11.144C502.268 11.144 501.656 10.892 501.236 10.364C500.804 9.848 500.6 9.152 500.6 8.288C500.6 7.184 500.924 6.248 501.572 5.504C502.22 4.76 503.036 4.376 504.008 4.376C504.824 4.376 505.436 4.616 505.82 5.084C506.204 5.552 506.396 6.164 506.396 6.92C506.396 7.232 506.348 7.604 506.276 8.012ZM513.956 8.672H515.012C514.868 9.404 514.532 10.004 514.004 10.46C513.464 10.916 512.84 11.144 512.132 11.144C511.328 11.144 510.704 10.868 510.272 10.292C509.84 9.728 509.624 9.032 509.624 8.216C509.624 7.592 509.744 6.992 509.996 6.416C510.236 5.84 510.632 5.36 511.16 4.964C511.688 4.58 512.312 4.376 513.032 4.376C513.728 4.376 514.304 4.568 514.736 4.94C515.168 5.312 515.384 5.816 515.384 6.452C515.384 6.596 515.372 6.692 515.372 6.752H514.34C514.34 6.74 514.34 6.716 514.34 6.68C514.34 6.644 514.352 6.62 514.352 6.596C514.352 6.2 514.208 5.888 513.932 5.648C513.656 5.42 513.32 5.3 512.912 5.3C512.24 5.3 511.7 5.6 511.292 6.2C510.884 6.8 510.68 7.472 510.68 8.204C510.68 8.78 510.812 9.248 511.088 9.62C511.352 9.992 511.748 10.172 512.276 10.172C512.72 10.172 513.08 10.04 513.368 9.752C513.644 9.476 513.836 9.116 513.956 8.672ZM521.401 7.292C521.401 6.644 521.245 6.164 520.957 5.828C520.669 5.504 520.273 5.336 519.793 5.336C519.121 5.336 518.569 5.624 518.113 6.188C517.657 6.752 517.441 7.436 517.441 8.24C517.441 8.888 517.585 9.368 517.885 9.692C518.185 10.028 518.581 10.184 519.073 10.184C519.733 10.184 520.285 9.908 520.729 9.344C521.173 8.792 521.401 8.108 521.401 7.292ZM519.889 4.376C520.657 4.376 521.269 4.628 521.749 5.108C522.229 5.588 522.469 6.284 522.469 7.196C522.469 8.312 522.133 9.248 521.461 10.004C520.789 10.772 519.949 11.144 518.941 11.144C518.173 11.144 517.549 10.904 517.081 10.424C516.601 9.944 516.373 9.236 516.373 8.324C516.373 7.208 516.709 6.272 517.381 5.516C518.053 4.76 518.881 4.376 519.889 4.376ZM527.792 4.376C528.416 4.376 528.872 4.544 529.184 4.88C529.496 5.216 529.652 5.624 529.652 6.116C529.652 6.308 529.628 6.488 529.58 6.68L528.584 11H527.516L528.488 6.788C528.524 6.62 528.548 6.464 528.548 6.32C528.548 5.672 528.2 5.336 527.528 5.336C526.964 5.336 526.46 5.564 526.016 6.008C525.572 6.452 525.26 7.04 525.092 7.784L524.348 11H523.28L524.78 4.496H525.836L525.584 5.576C526.208 4.784 526.94 4.376 527.792 4.376ZM533.548 11H532.648C531.676 11 531.196 10.604 531.196 9.812C531.196 9.62 531.22 9.416 531.268 9.2L532.132 5.444H530.884L531.1 4.496H532.348L532.756 2.756L533.884 2.456L533.416 4.496H534.904L534.688 5.444H533.2L532.348 9.14C532.312 9.272 532.3 9.404 532.3 9.524C532.3 9.884 532.516 10.052 532.96 10.052H533.764L533.548 11ZM538.519 5.3C538.051 5.3 537.619 5.456 537.211 5.768C536.803 6.08 536.515 6.536 536.335 7.148H539.863C539.875 7.052 539.887 6.92 539.887 6.74C539.887 5.78 539.431 5.3 538.519 5.3ZM540.835 8.012H536.179C536.143 8.192 536.131 8.336 536.131 8.444C536.131 8.9 536.251 9.308 536.515 9.656C536.767 10.016 537.175 10.184 537.739 10.184C538.627 10.184 539.215 9.764 539.515 8.924H540.523C540.283 9.656 539.899 10.208 539.383 10.58C538.855 10.964 538.267 11.144 537.619 11.144C536.827 11.144 536.215 10.892 535.795 10.364C535.363 9.848 535.159 9.152 535.159 8.288C535.159 7.184 535.483 6.248 536.131 5.504C536.779 4.76 537.595 4.376 538.567 4.376C539.383 4.376 539.995 4.616 540.379 5.084C540.763 5.552 540.955 6.164 540.955 6.92C540.955 7.232 540.907 7.604 540.835 8.012ZM546.19 4.376C546.814 4.376 547.27 4.544 547.582 4.88C547.894 5.216 548.05 5.624 548.05 6.116C548.05 6.308 548.026 6.488 547.978 6.68L546.982 11H545.914L546.886 6.788C546.922 6.62 546.946 6.464 546.946 6.32C546.946 5.672 546.598 5.336 545.926 5.336C545.362 5.336 544.858 5.564 544.414 6.008C543.97 6.452 543.658 7.04 543.49 7.784L542.746 11H541.678L543.178 4.496H544.234L543.982 5.576C544.606 4.784 545.338 4.376 546.19 4.376ZM551.946 11H551.046C550.074 11 549.594 10.604 549.594 9.812C549.594 9.62 549.618 9.416 549.666 9.2L550.53 5.444H549.282L549.498 4.496H550.746L551.154 2.756L552.282 2.456L551.814 4.496H553.302L553.086 5.444H551.598L550.746 9.14C550.71 9.272 550.698 9.404 550.698 9.524C550.698 9.884 550.914 10.052 551.358 10.052H552.162L551.946 11ZM554.43 11H553.038L553.374 9.56H554.766L554.43 11Z" fill="#171718"/>
</svg>
